  0
SECTION
  2
HEADER
  9
$ACADVER
  1
AC1027
  9
$ACADMAINTVER
 70
105
  9
$DWGCODEPAGE
  3
ANSI_1252
  9
$LASTSAVEDBY
  1
ezdxf
  9
$REQUIREDVERSIONS
160
0
  9
$INSBASE
 10
0.0
 20
0.0
 30
0.0
  9
$EXTMIN
 10
-100
 20
-100
 30
-100
  9
$EXTMAX
 10
100
 20
100
 30
100
  9
$LIMMIN
 10
0.0
 20
0.0
  9
$LIMMAX
 10
420.0
 20
297.0
  9
$ORTHOMODE
 70
0
  9
$REGENMODE
 70
1
  9
$FILLMODE
 70
1
  9
$QTEXTMODE
 70
0
  9
$MIRRTEXT
 70
1
  9
$LTSCALE
 40
1.0
  9
$ATTMODE
 70
1
  9
$TEXTSIZE
 40
2.5
  9
$TRACEWID
 40
1.0
  9
$TEXTSTYLE
  7
Standard
  9
$CLAYER
  8
0
  9
$CELTYPE
  6
ByLayer
  9
$CECOLOR
 62
256
  9
$CELTSCALE
 40
1.0
  9
$DISPSILH
 70
0
  9
$DIMSCALE
 40
1.0
  9
$DIMASZ
 40
2.5
  9
$DIMEXO
 40
0.625
  9
$DIMDLI
 40
3.75
  9
$DIMRND
 40
0.0
  9
$DIMDLE
 40
0.0
  9
$DIMEXE
 40
1.25
  9
$DIMTP
 40
0.0
  9
$DIMTM
 40
0.0
  9
$DIMTXT
 40
2.5
  9
$DIMCEN
 40
2.5
  9
$DIMTSZ
 40
0.0
  9
$DIMTOL
 70
0
  9
$DIMLIM
 70
0
  9
$DIMTIH
 70
0
  9
$DIMTOH
 70
0
  9
$DIMSE1
 70
0
  9
$DIMSE2
 70
0
  9
$DIMTAD
 70
1
  9
$DIMZIN
 70
8
  9
$DIMBLK
  1

  9
$DIMASO
 70
1
  9
$DIMSHO
 70
1
  9
$DIMPOST
  1

  9
$DIMAPOST
  1

  9
$DIMALT
 70
0
  9
$DIMALTD
 70
3
  9
$DIMALTF
 40
0.03937007874
  9
$DIMLFAC
 40
1.0
  9
$DIMTOFL
 70
1
  9
$DIMTVP
 40
0.0
  9
$DIMTIX
 70
0
  9
$DIMSOXD
 70
0
  9
$DIMSAH
 70
0
  9
$DIMBLK1
  1

  9
$DIMBLK2
  1

  9
$DIMSTYLE
  2
ISO-25
  9
$DIMCLRD
 70
0
  9
$DIMCLRE
 70
0
  9
$DIMCLRT
 70
0
  9
$DIMTFAC
 40
1.0
  9
$DIMGAP
 40
0.625
  9
$DIMJUST
 70
0
  9
$DIMSD1
 70
0
  9
$DIMSD2
 70
0
  9
$DIMTOLJ
 70
0
  9
$DIMTZIN
 70
8
  9
$DIMALTZ
 70
0
  9
$DIMALTTZ
 70
0
  9
$DIMUPT
 70
0
  9
$DIMDEC
 70
2
  9
$DIMTDEC
 70
2
  9
$DIMALTU
 70
2
  9
$DIMALTTD
 70
3
  9
$DIMTXSTY
  7
Standard
  9
$DIMAUNIT
 70
0
  9
$DIMADEC
 70
0
  9
$DIMALTRND
 40
0.0
  9
$DIMAZIN
 70
0
  9
$DIMDSEP
 70
44
  9
$DIMATFIT
 70
3
  9
$DIMFRAC
 70
0
  9
$DIMLDRBLK
  1

  9
$DIMLUNIT
 70
2
  9
$DIMLWD
 70
-2
  9
$DIMLWE
 70
-2
  9
$DIMTMOVE
 70
0
  9
$DIMFXL
 40
1.0
  9
$DIMFXLON
 70
0
  9
$DIMJOGANG
 40
0.785398163397
  9
$DIMTFILL
 70
0
  9
$DIMTFILLCLR
 70
0
  9
$DIMARCSYM
 70
0
  9
$DIMLTYPE
  6

  9
$DIMLTEX1
  6

  9
$DIMLTEX2
  6

  9
$DIMTXTDIRECTION
 70
0
  9
$LUNITS
 70
2
  9
$LUPREC
 70
4
  9
$SKETCHINC
 40
1.0
  9
$FILLETRAD
 40
10.0
  9
$AUNITS
 70
0
  9
$AUPREC
 70
2
  9
$MENU
  1
.
  9
$ELEVATION
 40
0.0
  9
$PELEVATION
 40
0.0
  9
$THICKNESS
 40
0.0
  9
$LIMCHECK
 70
0
  9
$CHAMFERA
 40
0.0
  9
$CHAMFERB
 40
0.0
  9
$CHAMFERC
 40
0.0
  9
$CHAMFERD
 40
0.0
  9
$SKPOLY
 70
0
  9
$TDCREATE
 40
2459059.560162037
  9
$TDUCREATE
 40
2458532.153996898
  9
$TDUPDATE
 40
2459059.560162037
  9
$TDUUPDATE
 40
2458532.1544311
  9
$TDINDWG
 40
0.0
  9
$TDUSRTIMER
 40
0.0
  9
$USRTIMER
 70
1
  9
$ANGBASE
 50
0.0
  9
$ANGDIR
 70
0
  9
$PDMODE
 70
0
  9
$PDSIZE
 40
0.0
  9
$PLINEWID
 40
0.0
  9
$SPLFRAME
 70
0
  9
$SPLINETYPE
 70
6
  9
$SPLINESEGS
 70
8
  9
$HANDSEED
  5
39
  9
$SURFTAB1
 70
6
  9
$SURFTAB2
 70
6
  9
$SURFTYPE
 70
6
  9
$SURFU
 70
6
  9
$SURFV
 70
6
  9
$UCSBASE
  2

  9
$UCSNAME
  2

  9
$UCSORG
 10
0.0
 20
0.0
 30
0.0
  9
$UCSXDIR
 10
1.0
 20
0.0
 30
0.0
  9
$UCSYDIR
 10
0.0
 20
1.0
 30
0.0
  9
$UCSORTHOREF
  2

  9
$UCSORTHOVIEW
 70
0
  9
$UCSORGTOP
 10
0.0
 20
0.0
 30
0.0
  9
$UCSORGBOTTOM
 10
0.0
 20
0.0
 30
0.0
  9
$UCSORGLEFT
 10
0.0
 20
0.0
 30
0.0
  9
$UCSORGRIGHT
 10
0.0
 20
0.0
 30
0.0
  9
$UCSORGFRONT
 10
0.0
 20
0.0
 30
0.0
  9
$UCSORGBACK
 10
0.0
 20
0.0
 30
0.0
  9
$PUCSBASE
  2

  9
$PUCSNAME
  2

  9
$PUCSORG
 10
0.0
 20
0.0
 30
0.0
  9
$PUCSXDIR
 10
1.0
 20
0.0
 30
0.0
  9
$PUCSYDIR
 10
0.0
 20
1.0
 30
0.0
  9
$PUCSORTHOREF
  2

  9
$PUCSORTHOVIEW
 70
0
  9
$PUCSORGTOP
 10
0.0
 20
0.0
 30
0.0
  9
$PUCSORGBOTTOM
 10
0.0
 20
0.0
 30
0.0
  9
$PUCSORGLEFT
 10
0.0
 20
0.0
 30
0.0
  9
$PUCSORGRIGHT
 10
0.0
 20
0.0
 30
0.0
  9
$PUCSORGFRONT
 10
0.0
 20
0.0
 30
0.0
  9
$PUCSORGBACK
 10
0.0
 20
0.0
 30
0.0
  9
$USERI1
 70
0
  9
$USERI2
 70
0
  9
$USERI3
 70
0
  9
$USERI4
 70
0
  9
$USERI5
 70
0
  9
$USERR1
 40
0.0
  9
$USERR2
 40
0.0
  9
$USERR3
 40
0.0
  9
$USERR4
 40
0.0
  9
$USERR5
 40
0.0
  9
$WORLDVIEW
 70
1
  9
$SHADEDGE
 70
3
  9
$SHADEDIF
 70
70
  9
$TILEMODE
 70
1
  9
$MAXACTVP
 70
64
  9
$PINSBASE
 10
0.0
 20
0.0
 30
0.0
  9
$PLIMCHECK
 70
0
  9
$PEXTMIN
 10
1e+20
 20
1e+20
 30
1e+20
  9
$PEXTMAX
 10
-1e+20
 20
-1e+20
 30
-1e+20
  9
$PLIMMIN
 10
0.0
 20
0.0
  9
$PLIMMAX
 10
420.0
 20
297.0
  9
$UNITMODE
 70
0
  9
$VISRETAIN
 70
1
  9
$PLINEGEN
 70
0
  9
$PSLTSCALE
 70
1
  9
$TREEDEPTH
 70
3020
  9
$CMLSTYLE
  2
Standard
  9
$CMLJUST
 70
0
  9
$CMLSCALE
 40
20.0
  9
$PROXYGRAPHICS
 70
1
  9
$MEASUREMENT
 70
1
  9
$CELWEIGHT
370
-1
  9
$ENDCAPS
280
0
  9
$JOINSTYLE
280
0
  9
$LWDISPLAY
290
0
  9
$INSUNITS
 70
6
  9
$HYPERLINKBASE
  1

  9
$STYLESHEET
  1

  9
$XEDIT
290
1
  9
$CEPSNTYPE
380
0
  9
$PSTYLEMODE
290
1
  9
$FINGERPRINTGUID
  2
339205EE-D0C5-11EA-A19A-3CF8624E9620
  9
$VERSIONGUID
  2
3395B572-D0C5-11EA-A19A-3CF8624E9620
  9
$EXTNAMES
290
1
  9
$PSVPSCALE
 40
0.0
  9
$OLESTARTUP
290
0
  9
$SORTENTS
280
127
  9
$INDEXCTL
280
0
  9
$HIDETEXT
280
1
  9
$XCLIPFRAME
280
2
  9
$HALOGAP
280
0
  9
$OBSCOLOR
 70
257
  9
$OBSLTYPE
280
0
  9
$INTERSECTIONDISPLAY
280
0
  9
$INTERSECTIONCOLOR
 70
257
  9
$DIMASSOC
280
2
  9
$PROJECTNAME
  1

  9
$CAMERADISPLAY
290
0
  9
$LENSLENGTH
 40
50.0
  9
$CAMERAHEIGHT
 40
0.0
  9
$STEPSPERSEC
 40
24.0
  9
$STEPSIZE
 40
100.0
  9
$3DDWFPREC
 40
2.0
  9
$PSOLWIDTH
 40
0.005
  9
$PSOLHEIGHT
 40
0.08
  9
$LOFTANG1
 40
1.570796326795
  9
$LOFTANG2
 40
1.570796326795
  9
$LOFTMAG1
 40
0.0
  9
$LOFTMAG2
 40
0.0
  9
$LOFTPARAM
 70
7
  9
$LOFTNORMALS
280
1
  9
$LATITUDE
 40
37.795
  9
$LONGITUDE
 40
-122.394
  9
$NORTHDIRECTION
 40
0.0
  9
$TIMEZONE
 70
-8000
  9
$LIGHTGLYPHDISPLAY
280
1
  9
$TILEMODELIGHTSYNCH
280
1
  9
$CMATERIAL
347
20
  9
$SOLIDHIST
280
0
  9
$SHOWHIST
280
1
  9
$DWFFRAME
280
2
  9
$DGNFRAME
280
2
  9
$REALWORLDSCALE
290
1
  9
$INTERFERECOLOR
 62
256
  9
$CSHADOW
280
0
  9
$SHADOWPLANELOCATION
 40
0.0
  0
ENDSEC
  0
SECTION
  2
CLASSES
  0
CLASS
  1
ACDBDICTIONARYWDFLT
  2
AcDbDictionaryWithDefault
  3
ObjectDBX Classes
 90
0
 91
0
280
0
281
0
  0
CLASS
  1
SUN
  2
AcDbSun
  3
SCENEOE
 90
1153
 91
0
280
0
281
0
  0
CLASS
  1
VISUALSTYLE
  2
AcDbVisualStyle
  3
ObjectDBX Classes
 90
4095
 91
0
280
0
281
0
  0
CLASS
  1
MATERIAL
  2
AcDbMaterial
  3
ObjectDBX Classes
 90
1153
 91
0
280
0
281
0
  0
CLASS
  1
SCALE
  2
AcDbScale
  3
ObjectDBX Classes
 90
1153
 91
0
280
0
281
0
  0
CLASS
  1
TABLESTYLE
  2
AcDbTableStyle
  3
ObjectDBX Classes
 90
4095
 91
0
280
0
281
0
  0
CLASS
  1
MLEADERSTYLE
  2
AcDbMLeaderStyle
  3
ACDB_MLEADERSTYLE_CLASS
 90
4095
 91
0
280
0
281
0
  0
CLASS
  1
DICTIONARYVAR
  2
AcDbDictionaryVar
  3
ObjectDBX Classes
 90
0
 91
0
280
0
281
0
  0
CLASS
  1
CELLSTYLEMAP
  2
AcDbCellStyleMap
  3
ObjectDBX Classes
 90
1152
 91
0
280
0
281
0
  0
CLASS
  1
MENTALRAYRENDERSETTINGS
  2
AcDbMentalRayRenderSettings
  3
SCENEOE
 90
1024
 91
0
280
0
281
0
  0
CLASS
  1
ACDBDETAILVIEWSTYLE
  2
AcDbDetailViewStyle
  3
ObjectDBX Classes
 90
1025
 91
0
280
0
281
0
  0
CLASS
  1
ACDBSECTIONVIEWSTYLE
  2
AcDbSectionViewStyle
  3
ObjectDBX Classes
 90
1025
 91
0
280
0
281
0
  0
CLASS
  1
RASTERVARIABLES
  2
AcDbRasterVariables
  3
ISM
 90
0
 91
0
280
0
281
0
  0
CLASS
  1
ACDBPLACEHOLDER
  2
AcDbPlaceHolder
  3
ObjectDBX Classes
 90
0
 91
0
280
0
281
0
  0
CLASS
  1
LAYOUT
  2
AcDbLayout
  3
ObjectDBX Classes
 90
0
 91
0
280
0
281
0
  0
ENDSEC
  0
SECTION
  2
TABLES
  0
TABLE
  2
VPORT
  5
8
330
0
100
AcDbSymbolTable
 70
1
  0
VPORT
  5
23
330
8
100
AcDbSymbolTableRecord
100
AcDbViewportTableRecord
  2
*Active
 70
0
 10
0.0
 20
0.0
 11
1.0
 21
1.0
 12
70.0
 22
50.0
 13
0.0
 23
0.0
 14
0.5
 24
0.5
 15
0.5
 25
0.5
 16
0.0
 26
0.0
 36
1.0
 17
0.0
 27
0.0
 37
0.0
 40
1.0
 41
1.34
 42
50.0
 43
0.0
 44
0.0
 50
0.0
 51
0.0
 71
0
 72
1000
 73
1
 74
3
 75
0
 76
0
 77
0
 78
0
281
0
 65
0
146
0.0
  0
ENDTAB
  0
TABLE
  2
LTYPE
  5
2
330
0
100
AcDbSymbolTable
 70
3
  0
LTYPE
  5
24
330
2
100
AcDbSymbolTableRecord
100
AcDbLinetypeTableRecord
  2
ByBlock
 70
0
  3

 72
65
 73
0
 40
0.0
  0
LTYPE
  5
25
330
2
100
AcDbSymbolTableRecord
100
AcDbLinetypeTableRecord
  2
ByLayer
 70
0
  3

 72
65
 73
0
 40
0.0
  0
LTYPE
  5
26
330
2
100
AcDbSymbolTableRecord
100
AcDbLinetypeTableRecord
  2
Continuous
 70
0
  3

 72
65
 73
0
 40
0.0
  0
ENDTAB
  0
TABLE
  2
LAYER
  5
1
330
0
100
AcDbSymbolTable
 70
2
  0
LAYER
  5
27
330
1
100
AcDbSymbolTableRecord
100
AcDbLayerTableRecord
  2
0
 70
0
 62
7
  6
Continuous
370
-3
390
13
347
21
  0
LAYER
  5
28
330
1
100
AcDbSymbolTableRecord
100
AcDbLayerTableRecord
  2
Defpoints
 70
0
 62
7
  6
Continuous
290
0
370
-3
390
13
347
21
  0
ENDTAB
  0
TABLE
  2
STYLE
  5
5
330
0
100
AcDbSymbolTable
 70
1
  0
STYLE
  5
29
330
5
100
AcDbSymbolTableRecord
100
AcDbTextStyleTableRecord
  2
Standard
 70
0
 40
0.0
 41
1.0
 50
0.0
 71
0
 42
2.5
  3
txt
  4

  0
ENDTAB
  0
TABLE
  2
VIEW
  5
7
330
0
100
AcDbSymbolTable
 70
0
  0
ENDTAB
  0
TABLE
  2
UCS
  5
6
330
0
100
AcDbSymbolTable
 70
0
  0
ENDTAB
  0
TABLE
  2
APPID
  5
3
330
0
100
AcDbSymbolTable
 70
1
  0
APPID
  5
2A
330
3
100
AcDbSymbolTableRecord
100
AcDbRegAppTableRecord
  2
ACAD
 70
0
  0
ENDTAB
  0
TABLE
  2
DIMSTYLE
  5
4
330
0
100
AcDbSymbolTable
 70
1
100
AcDbDimStyleTable
  0
DIMSTYLE
105
2B
330
4
100
AcDbSymbolTableRecord
100
AcDbDimStyleTableRecord
  2
Standard
 70
0
 40
1.0
 41
2.5
 42
0.625
 43
3.75
 44
1.25
 45
0.0
 46
0.0
 47
0.0
 48
0.0
 49
2.5
140
2.5
141
2.5
142
0.0
143
0.03937007874
144
1.0
145
0.0
146
1.0
147
0.625
148
0.0
 69
0
 70
0
 71
0
 72
0
 73
0
 74
0
 75
0
 76
0
 77
1
 78
8
 79
0
170
0
171
3
172
1
173
0
174
0
175
0
176
0
177
0
178
0
179
0
271
0
272
2
273
2
274
3
275
0
276
0
277
2
278
44
279
0
280
0
281
0
282
0
283
0
284
8
285
0
286
0
288
0
289
3
290
0
371
-2
372
-2
  0
ENDTAB
  0
TABLE
  2
BLOCK_RECORD
  5
9
330
0
100
AcDbSymbolTable
 70
2
  0
BLOCK_RECORD
  5
17
330
9
100
AcDbSymbolTableRecord
100
AcDbBlockTableRecord
  2
*Model_Space
340
1A
 70
0
280
1
281
1
  0
BLOCK_RECORD
  5
1B
330
9
100
AcDbSymbolTableRecord
100
AcDbBlockTableRecord
  2
*Paper_Space
340
1E
 70
0
280
1
281
1
  0
ENDTAB
  0
ENDSEC
  0
SECTION
  2
BLOCKS
  0
BLOCK
  5
18
330
17
100
AcDbEntity
  8
0
100
AcDbBlockBegin
  2
*Model_Space
 70
0
 10
0.0
 20
0.0
 30
0.0
  3
*Model_Space
  1

  0
ENDBLK
  5
19
330
17
100
AcDbEntity
  8
0
100
AcDbBlockEnd
  0
BLOCK
  5
1C
330
1B
100
AcDbEntity
  8
0
100
AcDbBlockBegin
  2
*Paper_Space
 70
0
 10
0.0
 20
0.0
 30
0.0
  3
*Paper_Space
  1

  0
ENDBLK
  5
1D
330
1B
100
AcDbEntity
  8
0
100
AcDbBlockEnd
  0
ENDSEC
  0
SECTION
  2
ENTITIES
  0
LWPOLYLINE
  5
2D
330
17
100
AcDbEntity
  8
0
100
AcDbPolyline
 90
6
 70
0
 10
600.0
 20
12.5
 10
600.0
 20
7.5
 10
0.0
 20
7.5
 10
0.0
 20
12.5
 10
600.0
 20
12.5
 10
600.0
 20
12.5
  0
LWPOLYLINE
  5
2E
330
17
100
AcDbEntity
  8
0
100
AcDbPolyline
 90
6
 70
0
 10
0.0
 20
-12.5
 10
0.0
 20
-7.5
 10
600.0
 20
-7.5
 10
600.0
 20
-12.5
 10
0.0
 20
-12.5
 10
0.0
 20
-12.5
  0
LWPOLYLINE
  5
2F
330
17
100
AcDbEntity
  8
0
100
AcDbPolyline
 90
14
 70
0
 10
0.0
 20
-12.5
 10
-205.0
 20
-180.0
 10
-515.0
 20
-180.0
 10
-515.0
 20
180.0
 10
-205.0
 20
180.0
 10
0.0
 20
12.5
 10
0.0
 20
7.5
 10
-205.0
 20
120.0
 10
-455.0
 20
120.0
 10
-455.0
 20
-120.0
 10
-205.0
 20
-120.0
 10
0.0
 20
-7.5
 10
0.0
 20
-12.5
 10
0.0
 20
-12.5
  0
LWPOLYLINE
  5
30
330
17
100
AcDbEntity
  8
0
100
AcDbPolyline
 90
14
 70
0
 10
600.0
 20
12.5
 10
805.0
 20
180.0
 10
1115.0
 20
180.0
 10
1115.0
 20
-180.0
 10
805.0
 20
-180.0
 10
600.0
 20
-12.5
 10
600.0
 20
-7.5
 10
805.0
 20
-120.0
 10
1055.0
 20
-120.0
 10
1055.0
 20
120.0
 10
805.0
 20
120.0
 10
600.0
 20
7.5
 10
600.0
 20
12.5
 10
600.0
 20
12.5
  0
LWPOLYLINE
  5
31
330
17
100
AcDbEntity
  8
0
100
AcDbPolyline
 90
60
 70
0
 10
65.17112152755857
 20
105.77033147186076
 10
65.8047840656727
 20
100.07386967476273
 10
66.91599113654057
 20
94.45102128060705
 10
68.49684558775233
 20
88.94174687991769
 10
70.53611256590719
 20
83.58519991290478
 10
73.01929936073248
 20
78.41944841287958
 10
75.92875840221613
 20
73.48120446346442
 10
79.24381267877025
 20
68.80556329229786
 10
82.94090268510064
 20
64.42575385545014
 10
86.99375385545011
 20
60.37290268510066
 10
91.37356329229792
 20
56.675812678770214
 10
96.04920446346432
 20
53.360758402216206
 10
100.98744841287952
 20
50.45129936073251
 10
106.15319991290481
 20
47.9681125659072
 10
111.50974687991767
 20
45.92884558775234
 10
117.01902128060699
 20
44.3479911365406
 10
122.64186967476284
 20
43.23678406567269
 10
128.33833147186087
 20
42.603121527558564
 10
134.5950944333459
 20
42.437557000450944
 10
134.46283227744814
 20
37.439306634361095
 10
128.10063501407853
 20
37.60766113136847
 10
127.89037605273704
 20
37.62211157791747
 10
121.98426493672518
 20
38.2790950693301
 10
121.77597023058154
 20
38.31120366042982
 10
115.94618174305222
 20
39.46330696019867
 10
115.7413316057975
 20
39.51284550576265
 10
110.02929702397216
 20
41.151880819201416
 10
109.82934728935462
 20
41.218497257534985
 10
104.27566103424263
 20
43.332816250129966
 10
104.08203270971444
 20
43.41603714997057
 10
98.72616384873199
 20
45.99061373003693
 10
98.54023301660018
 20
46.089847655146485
 10
93.42024476387857
 20
49.10638476160823
 10
93.24333280173113
 20
49.22092647400601
 10
88.39561200957611
 20
52.65798611037762
 10
88.22897619948478
 20
52.78702158234205
 10
83.68797476344295
 20
56.62017717278374
 10
83.53279935668165
 20
56.76278937200365
 10
79.33078937200362
 20
60.96479935668168
 10
79.18817717278371
 20
61.11997476344299
 10
75.35502158234209
 20
65.66097619948472
 10
75.22598611037766
 20
65.82761200957606
 10
71.78892647400599
 20
70.67533280173114
 10
71.67438476160821
 20
70.8522447638786
 10
68.65784765514644
 20
75.97223301660024
 10
68.55861373003688
 20
76.15816384873204
 10
65.98403714997059
 20
81.51403270971434
 10
65.90081625012999
 20
81.70766103424253
 10
63.78649725753497
 20
87.26134728935463
 10
63.7198808192014
 20
87.46129702397218
 10
62.08084550576266
 20
93.1733316057974
 10
62.031306960198684
 20
93.37818174305212
 10
60.87920366042982
 20
99.20797023058151
 10
60.8470950693301
 20
99.41626493672516
 10
60.19011157791748
 20
105.3223760527369
 10
60.17566113136847
 20
105.53263501407841
 10
60.0073066343611
 20
111.89483227744815
 10
65.00555700045095
 20
112.02709443334588
 10
65.17112152755857
 20
105.77033147186076
 10
65.17112152755857
 20
105.77033147186076
  0
LWPOLYLINE
  5
32
330
17
100
AcDbEntity
  8
0
100
AcDbPolyline
 90
114
 70
0
 10
127.14984918294908
 20
17.625819546608106
 10
127.04456735942881
 20
17.63082812908883
 10
126.20353151406277
 20
17.688629915284846
 10
126.09855437624154
 20
17.69807177935313
 10
119.35384598457459
 20
18.448339083959752
 10
119.24936012886579
 20
18.462197446742607
 10
118.41618130429121
 20
18.590631811141495
 10
118.31237245385637
 20
18.60888203945836
 10
111.65482359283303
 20
19.924570254830993
 10
111.5518762674597
 20
19.947179908979113
 10
110.73247571844078
 20
20.145334091235007
 10
110.63057290655938
 20
20.172262982650864
 10
104.10749760019029
 20
22.044021744997636
 10
104.006820433613
 20
22.07522200769193
 10
103.20702149514284
 20
22.34168776102621
 10
103.10774892710258
 20
22.377103936665485
 10
96.76550551959403
 20
24.791630987021016
 10
96.66781400665577
 20
24.831200123504583
 10
95.89330070854301
 20
25.16408372286701
 10
95.79736389695307
 20
25.207735486224045
 10
89.68102559214164
 20
28.147871207254703
 10
89.58701400917221
 20
28.195528006662595
 10
88.84329068064496
 20
28.59246370710083
 10
88.75137143148258
 20
28.644040832802496
 10
82.9044059655355
 20
32.08889019917638
 10
82.81474243625232
 20
32.14429597305155
 10
82.10709458766256
 20
32.60246282264266
 10
82.0198461547983
 20
32.66159876116527
 10
76.48380687868914
 20
36.58667983680702
 10
76.39912862595996
 20
36.64944082609936
 10
75.73258538559465
 20
37.165582713957086
 10
75.65062782823249
 20
37.23185719662918
 10
70.4648583954142
 20
41.60927512351618
 10
70.3857672126267
 20
41.678945296958595
 10
69.76506558558148
 20
42.249394093838234
 10
69.68898136160767
 20
42.32233611961573
 10
64.89033611961574
 20
47.12098136160766
 10
64.81739409383823
 20
47.19706558558148
 10
64.2469452969586
 20
47.8177672126267
 10
64.1772751235162
 20
47.896858395414185
 10
59.799857196629176
 20
53.082627828232496
 10
59.733582713957105
 20
53.16458538559462
 10
59.21744082609938
 20
53.83112862595991
 10
59.15467983680702
 20
53.91580687868912
 10
55.22959876116528
 20
59.45184615479825
 10
55.170462822642655
 20
59.53909458766252
 10
54.71229597305153
 20
60.246742436252305
 10
54.656890199176374
 20
60.33640596553548
 10
51.212040832802515
 20
66.1833714314825
 10
51.16046370710083
 20
66.27529068064491
 10
50.76352800666261
 20
67.01901400917217
 10
50.715871207254736
 20
67.11302559214157
 10
47.77573548622405
 20
73.22936389695305
 10
47.732083722867024
 20
73.32530070854297
 10
47.39920012350459
 20
74.09981400665573
 10
47.35963098702101
 20
74.197505519594
 10
44.9451039366655
 20
80.53974892710251
 10
44.90968776102622
 20
80.6390214951428
 10
44.643222007691946
 20
81.43882043361296
 10
44.612021744997655
 20
81.53949760019022
 10
42.74026298265087
 20
88.06257290655935
 10
42.71333409123502
 20
88.16447571844073
 10
42.515179908979114
 20
88.98387626745965
 10
42.49257025483099
 20
89.086823592833
 10
41.176882039458356
 20
95.74437245385636
 10
41.15863181114149
 20
95.8481813042912
 10
41.030197446742605
 20
96.68136012886576
 10
41.01633908395975
 20
96.78584598457456
 10
40.266071779353126
 20
103.53055437624147
 10
40.25662991528485
 20
103.63553151406268
 10
40.198828129088824
 20
104.47656735942873
 10
40.1938195466081
 20
104.58184918294903
 10
40.014305170001705
 20
111.3657836538572
 10
45.012555536091554
 20
111.49804580975494
 10
45.1906755479186
 20
104.76680505324684
 10
45.24124889871186
 20
104.03094542612118
 10
45.979860910584684
 20
97.39101509185642
 10
46.092233842151664
 20
96.66202992129729
 10
47.38748303372247
 20
90.10790510712816
 10
47.56085693148397
 20
89.39097516200162
 10
49.40353819549346
 20
82.96923487550286
 10
49.63668092177639
 20
82.26945525031702
 10
52.01369864790474
 20
76.02573766560467
 10
52.30495329852716
 20
75.34808157057232
 10
55.19941444158375
 20
69.32675968586037
 10
55.54671112118035
 20
68.67604310317232
 10
58.9380452569925
 20
62.91990938971084
 10
59.338915789395024
 20
62.30075684720183
 10
63.20302130518011
 20
56.85071913074049
 10
63.65461677430974
 20
56.26753083618588
 10
67.96403215458068
 20
51.162321572281165
 10
68.46314315119172
 20
50.61924214189717
 10
73.18724214189729
 20
45.8951431511916
 10
73.73032157228108
 20
45.396032154580745
 10
78.83553083618594
 20
41.086616774309675
 10
79.41871913074046
 20
40.63502130518013
 10
84.86875684720184
 20
36.77091578939504
 10
85.4879093897109
 20
36.37004525699249
 10
91.24404310317236
 20
32.97871112118034
 10
91.89475968586034
 20
32.631414441583765
 10
97.91608157057225
 20
29.736953298527204
 10
98.59373766560478
 20
29.44569864790471
 10
104.83745525031698
 20
27.068680921776416
 10
105.53723487550307
 20
26.835538195493406
 10
111.95897516200164
 20
24.992856931483967
 10
112.67590510712817
 20
24.819483033722477
 10
119.2300299212973
 20
23.524233842151666
 10
119.95901509185644
 20
23.411860910584682
 10
126.59894542612119
 20
22.67324889871187
 10
127.33480505324692
 20
22.62267554791861
 10
134.06604580975497
 20
22.444555536091563
 10
133.9337836538572
 20
17.446305170001715
 10
127.14984918294908
 20
17.625819546608106
 10
127.14984918294908
 20
17.625819546608106
  0
LWPOLYLINE
  5
33
330
17
100
AcDbEntity
  8
0
100
AcDbPolyline
 90
6
 70
0
 10
421.802
 20
42.432
 10
421.802
 20
37.432
 10
133.0
 20
37.432
 10
133.0
 20
42.432
 10
421.802
 20
42.432
 10
421.802
 20
42.432
  0
LWPOLYLINE
  5
34
330
17
100
AcDbEntity
  8
0
100
AcDbPolyline
 90
6
 70
0
 10
133.0
 20
17.432
 10
133.0
 20
22.432
 10
421.802
 20
22.432
 10
421.802
 20
17.432
 10
133.0
 20
17.432
 10
133.0
 20
17.432
  0
LWPOLYLINE
  5
35
330
17
100
AcDbEntity
  8
0
100
AcDbPolyline
 90
6
 70
0
 10
65.0
 20
110.43200000000002
 10
60.0
 20
110.43200000000002
 10
60.0
 20
390.432
 10
65.0
 20
390.432
 10
65.0
 20
110.43200000000002
 10
65.0
 20
110.43200000000002
  0
LWPOLYLINE
  5
36
330
17
100
AcDbEntity
  8
0
100
AcDbPolyline
 90
6
 70
0
 10
40.0
 20
390.432
 10
45.0
 20
390.432
 10
45.0
 20
110.432
 10
40.0
 20
110.432
 10
40.0
 20
390.432
 10
40.0
 20
390.432
  0
LWPOLYLINE
  5
37
330
17
100
AcDbEntity
  8
0
100
AcDbPolyline
 90
246
 70
0
 10
65.0
 20
942.7349961757093
 10
66.98577013946797
 20
966.6996778567056
 10
72.76156201799493
 20
989.5077641850144
 10
82.21266724777738
 20
1011.054113846134
 10
95.08128431533902
 20
1030.7509985884503
 10
111.01639089305839
 20
1048.06113874214
 10
129.5833188132176
 20
1062.5123588079778
 10
150.27561068252288
 20
1073.710467174086
 10
172.52883471955948
 20
1081.350008635528
 10
195.7359809824235
 20
1085.2225964160339
 10
219.26401901757652
 20
1085.2225964160339
 10
242.47116528044052
 20
1081.350008635528
 10
264.7243893174772
 20
1073.710467174086
 10
285.4166811867824
 20
1062.5123588079778
 10
303.9836091069419
 20
1048.0611387421397
 10
319.91871568466075
 20
1030.7509985884506
 10
332.7873327522228
 20
1011.0541138461338
 10
342.238437982005
 20
989.5077641850144
 10
348.0142298605321
 20
966.6996778567054
 10
350.0
 20
942.7349961757096
 10
350.0
 20
390.432
 10
350.00213560403176
 20
390.3286875643779
 10
350.0362906739651
 20
389.50289410965456
 10
350.04269383741666
 20
389.39975818159587
 10
352.1566918099947
 20
363.8875966880821
 10
352.18224978400457
 20
363.68255857606107
 10
352.454092054678
 20
362.0534971593764
 10
352.4964946483364
 20
361.8512699172262
 10
358.78082421216004
 20
337.0350136840141
 10
358.8397817727568
 20
336.8369787288544
 10
359.3760511655995
 20
335.2748793537327
 10
359.45116095321345
 20
335.08238946511193
 10
369.734401979806
 20
311.6389612710915
 10
369.8251509184274
 20
311.4533313501313
 10
370.6112194023527
 20
310.0008040154367
 10
370.7169875847126
 20
309.8233021027233
 10
384.7186400652774
 20
288.39217755657114
 10
384.8387049874427
 20
288.22401617015305
 10
385.85313066333674
 20
286.92068203511985
 10
385.98667216014485
 20
286.76300988777973
 10
403.32480751459605
 20
267.9287742003428
 10
403.4709133622145
 20
267.78266835272433
 10
404.6860253420491
 20
266.66407897501784
 10
404.84369748938934
 20
266.5305374782097
 10
425.04537658240304
 20
250.80693950185315
 10
425.21353796882113
 20
250.68687457968784
 10
426.5961911653471
 20
249.78354216158687
 10
426.7736930780605
 20
249.67777397922694
 10
449.2878667658263
 20
237.493712478385
 10
449.4734966867866
 20
237.40296353976356
 10
450.9859759251105
 20
236.7395286348221
 10
451.1784658137312
 20
236.66441884720817
 10
475.39100612811757
 20
228.35224325814585
 10
475.58904108327727
 20
228.29328569754912
 10
477.19008987251675
 20
227.88784508052825
 10
477.3923171146669
 20
227.84544248686976
 10
502.6427690732793
 20
223.63188729143215
 10
502.8478071853003
 20
223.60632931742228
 10
504.49375308810767
 20
223.4699423514495
 10
504.7002014517885
 20
223.4614035839662
 10
530.2997985482116
 20
223.4614035839662
 10
530.5062469118923
 20
223.4699423514495
 10
532.1521928146997
 20
223.60632931742228
 10
532.3572309267207
 20
223.63188729143215
 10
557.6076828853331
 20
227.84544248686976
 10
557.8099101274832
 20
227.88784508052825
 10
559.4109589167227
 20
228.29328569754912
 10
559.6089938718824
 20
228.35224325814585
 10
583.8215341862689
 20
236.66441884720817
 10
584.0140240748896
 20
236.73952863482214
 10
585.5265033132134
 20
237.4029635397636
 10
585.7121332341737
 20
237.493712478385
 10
608.2263069219396
 20
249.67777397922694
 10
608.403808834653
 20
249.78354216158687
 10
609.7864620311789
 20
250.6868745796878
 10
609.954623417597
 20
250.80693950185312
 10
630.1563025106108
 20
266.5305374782097
 10
630.3139746579509
 20
266.66407897501784
 10
631.5290866377856
 20
267.7826683527244
 10
631.6751924854041
 20
267.92877420034284
 10
649.0133278398552
 20
286.76300988777973
 10
649.1468693366633
 20
286.9206820351199
 10
650.1612950125573
 20
288.22401617015305
 10
650.2813599347227
 20
288.3921775565712
 10
664.2830124152874
 20
309.8233021027233
 10
664.3887805976473
 20
310.00080401543664
 10
665.1748490815726
 20
311.4533313501312
 10
665.265598020194
 20
311.6389612710915
 10
675.5488390467866
 20
335.08238946511193
 10
675.6239488344006
 20
335.2748793537328
 10
676.1602182272433
 20
336.8369787288545
 10
676.21917578784
 20
337.0350136840141
 10
682.5035053516635
 20
361.85126991722626
 10
682.545907945322
 20
362.0534971593763
 10
682.8177502159955
 20
363.68255857606096
 10
682.8433081900054
 20
363.88759668808206
 10
684.9573061625834
 20
389.3997581815958
 10
684.963709326035
 20
389.50289410965473
 10
684.9978643959682
 20
390.32868756437813
 10
685.0
 20
390.432
 10
685.0
 20
942.7349961757083
 10
686.9857701394682
 20
966.6996778567061
 10
692.7615620179948
 20
989.5077641850139
 10
702.2126672477775
 20
1011.0541138461341
 10
715.0812843153391
 20
1030.7509985884506
 10
731.0163908930585
 20
1048.0611387421402
 10
749.5833188132174
 20
1062.5123588079778
 10
770.275610682523
 20
1073.710467174086
 10
792.5288347195595
 20
1081.3500086355282
 10
815.7359809824235
 20
1085.2225964160339
 10
839.2640190175765
 20
1085.2225964160339
 10
862.4711652804405
 20
1081.3500086355282
 10
884.724389317477
 20
1073.710467174086
 10
905.4166811867826
 20
1062.5123588079778
 10
923.9836091069419
 20
1048.06113874214
 10
939.9187156846607
 20
1030.7509985884508
 10
952.7873327522225
 20
1011.0541138461341
 10
962.2384379820052
 20
989.5077641850138
 10
968.0142298605318
 20
966.6996778567061
 10
970.0
 20
942.7349961757083
 10
970.0
 20
390.432
 10
975.0
 20
390.432
 10
975.0
 20
942.8383969405669
 10
974.9914612325167
 20
943.0448453042477
 10
972.9800455264266
 20
967.3190229477484
 10
972.9120849587582
 20
967.7262883019196
 10
967.0345855431722
 20
990.9360086112081
 10
966.9005181949615
 20
991.3265334549885
 10
957.2829858058168
 20
1013.252298822689
 10
957.0864686848355
 20
1013.6154306563626
 10
943.991244534673
 20
1033.6591633594464
 10
943.7376381156995
 20
1033.9849968932049
 10
927.5219257826344
 20
1051.5999561536432
 10
927.2181477876758
 20
1051.87960349807
 10
908.3242696329456
 20
1066.5852991460115
 10
907.9786063338141
 20
1066.8111322505365
 10
886.9219381008165
 20
1078.2064312435919
 10
886.5438182912355
 20
1078.372289969827
 10
863.8987309987284
 20
1086.1463582567935
 10
863.4984688014185
 20
1086.2477184110487
 10
839.8826613994055
 20
1090.1884996745407
 10
839.4711749237036
 20
1090.2225964160339
 10
815.5288250762964
 20
1090.2225964160339
 10
815.1173386005945
 20
1090.1884996745407
 10
791.5015311985815
 20
1086.2477184110487
 10
791.1012690012716
 20
1086.1463582567935
 10
768.4561817087645
 20
1078.372289969827
 10
768.0780618991835
 20
1078.2064312435919
 10
747.0213936661859
 20
1066.8111322505365
 10
746.6757303670544
 20
1066.5852991460115
 10
727.7818522123247
 20
1051.8796034980703
 10
727.478074217366
 20
1051.5999561536437
 10
711.2623618843003
 20
1033.9849968932044
 10
711.0087554653268
 20
1033.6591633594462
 10
697.9135313151645
 20
1013.6154306563626
 10
697.7170141941832
 20
1013.252298822689
 10
688.0994818050385
 20
991.3265334549886
 10
687.9654144568278
 20
990.9360086112082
 10
682.0879150412418
 20
967.7262883019196
 10
682.0199544735734
 20
967.3190229477484
 10
680.0085387674833
 20
943.0448453042477
 10
680.0
 20
942.8383969405669
 10
680.0
 20
390.48367829068366
 10
679.9701161381303
 20
389.76115312583795
 10
677.8689244924553
 20
364.40354101426664
 10
677.6311206348348
 20
362.97846062397815
 10
671.3975578452752
 20
338.36267784867
 10
670.9284367993621
 20
336.9961749259637
 10
660.7282670010678
 20
313.742130056769
 10
660.0406251660874
 20
312.47147923916987
 10
646.1520824012974
 20
291.2134820013491
 10
645.2646768539591
 20
290.07334333082053
 10
628.0666043645685
 20
271.39125647355934
 10
627.0036412149107
 20
270.41272996091425
 10
606.9651575864006
 20
254.8161521131127
 10
605.7556316982068
 20
254.0259294107871
 10
583.4233345275353
 20
241.94029455888952
 10
582.100238614038
 20
241.3599308822467
 10
558.0832947520668
 20
233.1149036401138
 10
556.6827194207312
 20
232.76022979735686
 10
531.6362484885153
 20
228.58071301497233
 10
530.1963977833533
 20
228.4614035839662
 10
504.8036022166467
 20
228.4614035839662
 10
503.3637515114847
 20
228.58071301497233
 10
478.3172805792688
 20
232.76022979735686
 10
476.91670524793324
 20
233.1149036401138
 10
452.8997613859624
 20
241.3599308822466
 10
451.5766654724641
 20
241.9402945588898
 10
429.2443683017932
 20
254.02592941078714
 10
428.03484241359934
 20
254.81615211311274
 10
407.99635878508997
 20
270.4127299609138
 10
406.93339563543134
 20
271.3912564735595
 10
389.73532314604086
 20
290.07334333082053
 10
388.8479175987022
 20
291.21348200134946
 10
374.95937483391305
 20
312.4714792391692
 10
374.2717329989322
 20
313.74213005676916
 10
364.07156320063785
 20
336.99617492596406
 10
363.6024421547249
 20
338.36267784866965
 10
357.3688793651649
 20
362.9784606239789
 10
357.13107550754467
 20
364.4035410142664
 10
355.0298838618698
 20
389.7611531258365
 10
355.0
 20
390.4836782906839
 10
355.0
 20
942.8383969405676
 10
354.99146123251666
 20
943.0448453042484
 10
352.9800455264267
 20
967.3190229477481
 10
352.9120849587584
 20
967.7262883019192
 10
347.03458554317206
 20
990.9360086112086
 10
346.90051819496136
 20
991.3265334549891
 10
337.2829858058171
 20
1013.2522988226888
 10
337.0864686848357
 20
1013.6154306563625
 10
323.9912445346731
 20
1033.6591633594462
 10
323.73763811569967
 20
1033.9849968932044
 10
307.5219257826344
 20
1051.5999561536432
 10
307.2181477876758
 20
1051.8796034980699
 10
288.32426963294535
 20
1066.5852991460115
 10
287.97860633381384
 20
1066.811132250537
 10
266.9219381008166
 20
1078.2064312435919
 10
266.54381829123565
 20
1078.372289969827
 10
243.89873099872852
 20
1086.1463582567933
 10
243.49846880141865
 20
1086.2477184110485
 10
219.88266139940552
 20
1090.1884996745407
 10
219.47117492370367
 20
1090.2225964160339
 10
195.52882507629636
 20
1090.2225964160339
 10
195.1173386005945
 20
1090.1884996745407
 10
171.5015311985814
 20
1086.2477184110485
 10
171.10126900127153
 20
1086.1463582567933
 10
148.4561817087644
 20
1078.372289969827
 10
148.07806189918347
 20
1078.2064312435919
 10
127.02139366618617
 20
1066.811132250537
 10
126.67573036705467
 20
1066.5852991460115
 10
107.78185221232457
 20
1051.87960349807
 10
107.47807421736591
 20
1051.5999561536435
 10
91.26236188430023
 20
1033.9849968932044
 10
91.00875546532673
 20
1033.6591633594462
 10
77.91353131516439
 20
1013.6154306563624
 10
77.71701419418307
 20
1013.2522988226888
 10
68.09948180503864
 20
991.3265334549891
 10
67.96541445682794
 20
990.9360086112086
 10
62.08791504124166
 20
967.7262883019192
 10
62.01995447357331
 20
967.3190229477481
 10
60.00853876748332
 20
943.0448453042483
 10
60.0
 20
942.8383969405675
 10
60.0
 20
390.432
 10
65.0
 20
390.432
 10
65.0
 20
942.7349961757093
 10
65.0
 20
942.7349961757093
  0
LWPOLYLINE
  5
38
330
17
100
AcDbEntity
  8
0
100
AcDbPolyline
 90
310
 70
0
 10
995.0
 20
943.2520000000001
 10
994.9978643959682
 20
943.355312435622
 10
994.963709326035
 20
944.1811058903453
 10
994.9573061625834
 20
944.2842418184042
 10
992.8433081900054
 20
969.796403311918
 10
992.8177502159955
 20
970.0014414239391
 10
992.545907945322
 20
971.6305028406238
 10
992.5035053516635
 20
971.8327300827738
 10
986.21917578784
 20
996.6489863159859
 10
986.1602182272433
 20
996.8470212711455
 10
985.6239488344006
 20
998.4091206462673
 10
985.5488390467866
 20
998.6016105348881
 10
975.265598020194
 20
1022.0450387289086
 10
975.1748490815726
 20
1022.2306686498689
 10
974.3887805976473
 20
1023.6831959845634
 10
974.2830124152874
 20
1023.8606978972767
 10
960.2813599347227
 20
1045.2918224434288
 10
960.1612950125573
 20
1045.459983829847
 10
959.1468693366633
 20
1046.7633179648801
 10
959.0133278398552
 20
1046.9209901122204
 10
941.6751924854041
 20
1065.7552257996572
 10
941.5290866377857
 20
1065.9013316472756
 10
940.313974657951
 20
1067.019921024982
 10
940.1563025106108
 20
1067.1534625217905
 10
919.954623417597
 20
1082.8770604981469
 10
919.7864620311789
 20
1082.9971254203124
 10
918.403808834653
 20
1083.9004578384133
 10
918.2263069219396
 20
1084.0062260207733
 10
895.7121332341737
 20
1096.1902875216151
 10
895.5265033132135
 20
1096.2810364602365
 10
894.0140240748897
 20
1096.9444713651778
 10
893.8215341862689
 20
1097.019581152792
 10
869.6089938718825
 20
1105.3317567418542
 10
869.4109589167227
 20
1105.390714302451
 10
867.8099101274831
 20
1105.796154919472
 10
867.607682885333
 20
1105.8385575131304
 10
842.3572309267206
 20
1110.052112708568
 10
842.1521928146996
 20
1110.0776706825777
 10
840.5062469118923
 20
1110.2140576485506
 10
840.2997985482115
 20
1110.2225964160339
 10
814.7002014517885
 20
1110.2225964160339
 10
814.4937530881077
 20
1110.2140576485506
 10
812.8478071853004
 20
1110.0776706825777
 10
812.6427690732794
 20
1110.052112708568
 10
787.392317114667
 20
1105.8385575131304
 10
787.1900898725169
 20
1105.796154919472
 10
785.5890410832773
 20
1105.390714302451
 10
785.3910061281175
 20
1105.3317567418542
 10
761.1784658137311
 20
1097.019581152792
 10
760.9859759251103
 20
1096.9444713651778
 10
759.4734966867865
 20
1096.2810364602365
 10
759.2878667658263
 20
1096.1902875216151
 10
736.7736930780604
 20
1084.0062260207733
 10
736.596191165347
 20
1083.9004578384133
 10
735.2135379688211
 20
1082.9971254203124
 10
735.045376582403
 20
1082.8770604981469
 10
714.8436974893893
 20
1067.1534625217905
 10
714.6860253420492
 20
1067.0199210249823
 10
713.4709133622146
 20
1065.9013316472758
 10
713.324807514596
 20
1065.7552257996572
 10
695.9866721601448
 20
1046.9209901122204
 10
695.8531306633367
 20
1046.7633179648803
 10
694.8387049874427
 20
1045.4599838298473
 10
694.7186400652773
 20
1045.2918224434288
 10
680.7169875847126
 20
1023.8606978972767
 10
680.6112194023527
 20
1023.6831959845634
 10
679.8251509184274
 20
1022.2306686498689
 10
679.734401979806
 20
1022.0450387289086
 10
669.4511609532134
 20
998.6016105348882
 10
669.3760511655994
 20
998.4091206462674
 10
668.8397817727567
 20
996.8470212711456
 10
668.78082421216
 20
996.648986315986
 10
662.4964946483365
 20
971.8327300827738
 10
662.454092054678
 20
971.6305028406238
 10
662.1822497840045
 20
970.0014414239391
 10
662.1566918099946
 20
969.796403311918
 10
660.0426938374166
 20
944.2842418184042
 10
660.036290673965
 20
944.1811058903453
 10
660.0021356040318
 20
943.355312435622
 10
660.0
 20
943.2520000000001
 10
660.0
 20
390.94900382429086
 10
659.9742666408619
 20
390.63844836368116
 10
658.0142298605318
 20
366.98432214329404
 10
652.2384379820052
 20
344.1762358149861
 10
642.7873327522225
 20
322.6298861538661
 10
629.9187156846607
 20
302.9330014115494
 10
613.9836091069419
 20
285.62286125786017
 10
595.4166811867825
 20
271.1716411920225
 10
574.7243893174771
 20
259.97353282591394
 10
552.4711652804401
 20
252.33399136447187
 10
529.2640190175769
 20
248.4614035839662
 10
505.7359809824231
 20
248.4614035839662
 10
482.5288347195599
 20
252.33399136447187
 10
460.275610682523
 20
259.97353282591394
 10
439.5833188132175
 20
271.17164119202243
 10
421.01639089305843
 20
285.62286125786
 10
405.0812843153391
 20
302.93300141154964
 10
392.21266724777735
 20
322.62988615386615
 10
382.761562017995
 20
344.1762358149858
 10
376.9857701394679
 20
366.9843221432948
 10
375.0257333591381
 20
390.6384483636808
 10
375.0
 20
390.94900382429034
 10
375.0
 20
943.2520000000001
 10
374.99786439596824
 20
943.3553124356222
 10
374.9637093260349
 20
944.1811058903455
 10
374.95730616258334
 20
944.2842418184042
 10
372.8433081900053
 20
969.796403311918
 10
372.81775021599543
 20
970.001441423939
 10
372.545907945322
 20
971.6305028406236
 10
372.5035053516636
 20
971.8327300827738
 10
366.21917578783996
 20
996.6489863159859
 10
366.1602182272432
 20
996.8470212711456
 10
365.6239488344005
 20
998.4091206462673
 10
365.54883904678655
 20
998.601610534888
 10
355.26559802019403
 20
1022.0450387289085
 10
355.17484908157263
 20
1022.2306686498687
 10
354.3887805976473
 20
1023.6831959845633
 10
354.2830124152874
 20
1023.8606978972769
 10
340.28135993472256
 20
1045.2918224434288
 10
340.1612950125572
 20
1045.459983829847
 10
339.14686933666326
 20
1046.7633179648801
 10
339.01332783985515
 20
1046.9209901122204
 10
321.675192485404
 20
1065.7552257996572
 10
321.5290866377856
 20
1065.9013316472756
 10
320.313974657951
 20
1067.019921024982
 10
320.1563025106107
 20
1067.1534625217905
 10
299.954623417597
 20
1082.8770604981469
 10
299.78646203117887
 20
1082.9971254203124
 10
298.40380883465286
 20
1083.9004578384133
 10
298.22630692193957
 20
1084.0062260207733
 10
275.7121332341736
 20
1096.1902875216151
 10
275.5265033132134
 20
1096.2810364602365
 10
274.01402407488956
 20
1096.9444713651778
 10
273.8215341862688
 20
1097.019581152792
 10
249.60899387188246
 20
1105.3317567418542
 10
249.41095891672273
 20
1105.390714302451
 10
247.80991012748322
 20
1105.796154919472
 10
247.60768288533305
 20
1105.8385575131304
 10
222.3572309267207
 20
1110.052112708568
 10
222.15219281469965
 20
1110.0776706825777
 10
220.5062469118923
 20
1110.2140576485506
 10
220.29979854821153
 20
1110.2225964160339
 10
194.7002014517885
 20
1110.2225964160339
 10
194.49375308810772
 20
1110.2140576485506
 10
192.84780718530038
 20
1110.0776706825777
 10
192.64276907327934
 20
1110.052112708568
 10
167.39231711466698
 20
1105.8385575131304
 10
167.1900898725168
 20
1105.796154919472
 10
165.58904108327732
 20
1105.390714302451
 10
165.39100612811757
 20
1105.3317567418542
 10
141.17846581373118
 20
1097.019581152792
 10
140.98597592511038
 20
1096.9444713651778
 10
139.47349668678655
 20
1096.2810364602365
 10
139.28786676582638
 20
1096.1902875216151
 10
116.77369307806049
 20
1084.0062260207733
 10
116.59619116534714
 20
1083.9004578384133
 10
115.21353796882116
 20
1082.9971254203124
 10
115.045376582403
 20
1082.8770604981469
 10
94.8436974893893
 20
1067.1534625217905
 10
94.68602534204913
 20
1067.0199210249823
 10
93.47091336221453
 20
1065.9013316472758
 10
93.32480751459605
 20
1065.7552257996572
 10
75.98667216014489
 20
1046.9209901122204
 10
75.85313066333671
 20
1046.7633179648801
 10
74.83870498744272
 20
1045.459983829847
 10
74.7186400652774
 20
1045.2918224434288
 10
60.7169875847126
 20
1023.8606978972767
 10
60.6112194023527
 20
1023.6831959845634
 10
59.825150918427425
 20
1022.2306686498689
 10
59.734401979806
 20
1022.0450387289086
 10
49.451160953213424
 20
998.6016105348882
 10
49.37605116559948
 20
998.4091206462675
 10
48.83978177275674
 20
996.8470212711458
 10
48.780824212160006
 20
996.648986315986
 10
42.4964946483364
 20
971.8327300827738
 10
42.45409205467793
 20
971.6305028406236
 10
42.18224978400453
 20
970.001441423939
 10
42.15669180999466
 20
969.796403311918
 10
40.04269383741663
 20
944.2842418184042
 10
40.03629067396505
 20
944.1811058903454
 10
40.00213560403175
 20
943.3553124356221
 10
40.0
 20
943.2520000000001
 10
40.0
 20
390.432
 10
45.0
 20
390.432
 10
45.0
 20
943.2003217093159
 10
45.029883861869806
 20
943.9228468741636
 10
47.13107550754468
 20
969.2804589857336
 10
47.36887936516501
 20
970.7055393760218
 10
53.60244215472466
 20
995.32132215133
 10
54.07156320063794
 20
996.6878250740365
 10
64.27173299893204
 20
1019.9418699432307
 10
64.9593748339131
 20
1021.212520760831
 10
78.8479175987024
 20
1042.4705179986508
 10
79.73532314604084
 20
1043.6106566691797
 10
96.93339563543103
 20
1062.2927435264403
 10
97.99635878509005
 20
1063.2712700390864
 10
118.03484241359894
 20
1078.8678478868871
 10
119.24436830179361
 20
1079.6580705892134
 10
141.57666547246362
 20
1091.7437054411098
 10
142.89976138596347
 20
1092.3240691177539
 10
166.91670524793238
 20
1100.569096359886
 10
168.31728057926875
 20
1100.923770202643
 10
193.36375151148465
 20
1105.1032869850278
 10
194.80360221664705
 20
1105.2225964160339
 10
220.19639778335298
 20
1105.2225964160339
 10
221.63624848851538
 20
1105.1032869850278
 10
246.68271942073122
 20
1100.923770202643
 10
248.08329475206764
 20
1100.569096359886
 10
272.1002386140366
 20
1092.3240691177539
 10
273.4233345275363
 20
1091.74370544111
 10
295.75563169820657
 20
1079.6580705892131
 10
296.9651575864011
 20
1078.8678478868871
 10
317.00364121491
 20
1063.2712700390864
 10
318.06660436456866
 20
1062.2927435264405
 10
335.26467685395903
 20
1043.6106566691797
 10
336.15208240129755
 20
1042.4705179986508
 10
350.0406251660873
 20
1021.2125207608303
 10
350.72826700106776
 20
1019.941869943231
 10
360.9284367993621
 20
996.687825074036
 10
361.39755784527523
 20
995.3213221513302
 10
367.63112063483504
 20
970.7055393760212
 10
367.86892449245533
 20
969.2804589857336
 10
369.9701161381302
 20
943.9228468741637
 10
370.0
 20
943.2003217093162
 10
370.0
 20
390.84560305943245
 10
370.00853876748334
 20
390.63915469575164
 10
370.0428108941048
 20
390.2255516363192
 10
372.0199544735733
 20
366.364977052252
 10
372.0879150412416
 20
365.95771169808086
 10
377.96541445682794
 20
342.7479913887915
 10
378.09948180503864
 20
342.35746654501105
 10
387.717014194183
 20
320.43170117731137
 10
387.91353131516433
 20
320.0685693436377
 10
401.0087554653269
 20
300.0248366405538
 10
401.26236188430033
 20
299.69900310679554
 10
417.4780742173658
 20
282.0840438463566
 10
417.7818522123245
 20
281.80439650193
 10
436.6757303670546
 20
267.0987008539886
 10
437.0213936661861
 20
266.87286774946335
 10
458.0780618991838
 20
255.47756875640812
 10
458.45618170876475
 20
255.31171003017275
 10
481.1012690012714
 20
247.53764174320665
 10
481.5015311985813
 20
247.43628158895143
 10
505.1173386005943
 20
243.49550032545937
 10
505.52882507629613
 20
243.4614035839662
 10
529.4711749237039
 20
243.4614035839662
 10
529.8826613994057
 20
243.49550032545937
 10
553.4984688014188
 20
247.43628158895143
 10
553.8987309987285
 20
247.53764174320665
 10
576.5438182912354
 20
255.3117100301728
 10
576.9219381008164
 20
255.47756875640817
 10
597.978606333814
 20
266.8728677494634
 10
598.3242696329455
 20
267.09870085398865
 10
617.2181477876757
 20
281.80439650193
 10
617.5219257826343
 20
282.0840438463566
 10
633.7376381156996
 20
299.69900310679543
 10
633.9912445346731
 20
300.02483664055376
 10
647.0864686848355
 20
320.0685693436375
 10
647.2829858058168
 20
320.43170117731114
 10
656.9005181949615
 20
342.3574665450114
 10
657.0345855431722
 20
342.74799138879183
 10
662.9120849587582
 20
365.9577116980805
 10
662.9800455264266
 20
366.3649770522517
 10
664.9571891058952
 20
390.2255516363192
 10
664.9914612325166
 20
390.63915469575204
 10
665.0
 20
390.84560305943313
 10
665.0
 20
943.2003217093164
 10
665.0298838618697
 20
943.9228468741621
 10
667.1310755075447
 20
969.2804589857334
 10
667.3688793651652
 20
970.7055393760221
 10
673.6024421547247
 20
995.32132215133
 10
674.071563200638
 20
996.6878250740366
 10
684.2717329989322
 20
1019.941869943231
 10
684.9593748339128
 20
1021.2125207608306
 10
698.8479175987023
 20
1042.4705179986508
 10
699.735323146041
 20
1043.6106566691797
 10
716.9333956354312
 20
1062.2927435264405
 10
717.9963587850898
 20
1063.2712700390862
 10
738.0348424135988
 20
1078.867847886887
 10
739.244368301794
 20
1079.6580705892134
 10
761.5766654724637
 20
1091.74370544111
 10
762.8997613859635
 20
1092.3240691177539
 10
786.9167052479324
 20
1100.569096359886
 10
788.3172805792686
 20
1100.923770202643
 10
813.3637515114848
 20
1105.1032869850278
 10
814.803602216647
 20
1105.2225964160339
 10
840.196397783353
 20
1105.2225964160339
 10
841.6362484885152
 20
1105.1032869850278
 10
866.6827194207314
 20
1100.923770202643
 10
868.0832947520676
 20
1100.569096359886
 10
892.1002386140365
 20
1092.3240691177539
 10
893.4233345275363
 20
1091.74370544111
 10
915.755631698206
 20
1079.6580705892134
 10
916.9651575864012
 20
1078.867847886887
 10
937.0036412149103
 20
1063.2712700390862
 10
938.0666043645688
 20
1062.2927435264405
 10
955.264676853959
 20
1043.6106566691797
 10
956.1520824012977
 20
1042.4705179986506
 10
970.0406251660872
 20
1021.2125207608306
 10
970.7282670010678
 20
1019.941869943231
 10
980.928436799362
 20
996.6878250740365
 10
981.3975578452753
 20
995.3213221513299
 10
987.6311206348348
 20
970.7055393760221
 10
987.8689244924553
 20
969.2804589857334
 10
989.9701161381303
 20
943.9228468741621
 10
990.0
 20
943.2003217093164
 10
990.0
 20
390.432
 10
995.0
 20
390.432
 10
995.0
 20
943.2520000000001
 10
995.0
 20
943.2520000000001
  0
ENDSEC
  0
SECTION
  2
OBJECTS
  0
DICTIONARY
  5
A
330
0
100
AcDbDictionary
281
1
  3
ACAD_COLOR
350
B
  3
ACAD_GROUP
350
C
  3
ACAD_LAYOUT
350
D
  3
ACAD_MATERIAL
350
E
  3
ACAD_MLEADERSTYLE
350
F
  3
ACAD_MLINESTYLE
350
10
  3
ACAD_PLOTSETTINGS
350
11
  3
ACAD_PLOTSTYLENAME
350
12
  3
ACAD_SCALELIST
350
14
  3
ACAD_TABLESTYLE
350
15
  3
ACAD_VISUALSTYLE
350
16
  0
DICTIONARY
  5
B
330
A
100
AcDbDictionary
281
1
  0
DICTIONARY
  5
C
330
A
100
AcDbDictionary
281
1
  0
DICTIONARY
  5
D
330
A
100
AcDbDictionary
281
1
  3
Model
350
1A
  3
Layout1
350
1E
  0
DICTIONARY
  5
E
330
A
100
AcDbDictionary
281
1
  3
ByBlock
350
1F
  3
ByLayer
350
20
  3
Global
350
21
  0
DICTIONARY
  5
F
330
A
100
AcDbDictionary
281
1
  3
Standard
350
2C
  0
DICTIONARY
  5
10
330
A
100
AcDbDictionary
281
1
  3
Standard
350
22
  0
DICTIONARY
  5
11
330
A
100
AcDbDictionary
281
1
  0
ACDBDICTIONARYWDFLT
  5
12
330
A
100
AcDbDictionary
281
1
  3
Normal
350
13
100
AcDbDictionaryWithDefault
340
13
  0
ACDBPLACEHOLDER
  5
13
330
12
  0
DICTIONARY
  5
14
330
A
100
AcDbDictionary
281
1
  0
DICTIONARY
  5
15
330
A
100
AcDbDictionary
281
1
  0
DICTIONARY
  5
16
330
A
100
AcDbDictionary
281
1
  0
LAYOUT
  5
1A
330
D
100
AcDbPlotSettings
  1

  2
Adobe PDF
  4
A4
  6

 40
3.175
 41
3.175
 42
3.175
 43
3.175
 44
209.91
 45
297.03
 46
0.0
 47
0.0
 48
0.0
 49
0.0
140
0.0
141
0.0
142
1.0
143
1.0
 70
1024
 72
0
 73
1
 74
5
  7

 75
16
 76
0
 77
2
 78
300
147
1.0
148
0.0
149
0.0
100
AcDbLayout
  1
Model
 70
1
 71
0
 10
-3.175
 20
-3.175
 11
293.857
 21
206.735
 12
0.0
 22
0.0
 32
0.0
 14
29.068
 24
20.356
 34
0.0
 15
261.614
 25
183.204
 35
0.0
146
0.0
 13
0.0
 23
0.0
 33
0.0
 16
1.0
 26
0.0
 36
0.0
 17
0.0
 27
1.0
 37
0.0
 76
1
330
17
  0
LAYOUT
  5
1E
330
D
100
AcDbPlotSettings
  1

  2
Adobe PDF
  4
A4
  6

 40
3.175
 41
3.175
 42
3.175
 43
3.175
 44
209.91
 45
297.03
 46
0.0
 47
0.0
 48
0.0
 49
0.0
140
0.0
141
0.0
142
1.0
143
1.0
 70
0
 72
0
 73
1
 74
5
  7

 75
16
 76
0
 77
2
 78
300
147
1.0
148
0.0
149
0.0
100
AcDbLayout
  1
Layout1
 70
1
 71
1
 10
-3.175
 20
-3.175
 11
293.857
 21
206.735
 12
0.0
 22
0.0
 32
0.0
 14
29.068
 24
20.356
 34
0.0
 15
261.614
 25
183.204
 35
0.0
146
0.0
 13
0.0
 23
0.0
 33
0.0
 16
1.0
 26
0.0
 36
0.0
 17
0.0
 27
1.0
 37
0.0
 76
1
330
1B
  0
MATERIAL
  5
1F
102
{ACAD_REACTORS
330
E
102
}
330
E
100
AcDbMaterial
  1
ByBlock
  2

 70
0
 40
1.0
 71
1
 41
1.0
 91
-1023410177
 42
1.0
 72
1
  3

 73
1
 74
1
 75
1
 44
0.5
 73
0
 45
1.0
 46
1.0
 77
1
  4

 78
1
 79
1
170
1
 48
1.0
171
1
  6

172
1
173
1
174
1
140
1.0
141
1.0
175
1
  7

176
1
177
1
178
1
143
1.0
179
1
  8

270
1
271
1
272
1
145
1.0
146
1.0
273
1
  9

274
1
275
1
276
1
 42
1.0
 72
1
  3

 73
1
 74
1
 75
1
 94
63
  0
MATERIAL
  5
20
102
{ACAD_REACTORS
330
E
102
}
330
E
100
AcDbMaterial
  1
ByLayer
  2

 70
0
 40
1.0
 71
1
 41
1.0
 91
-1023410177
 42
1.0
 72
1
  3

 73
1
 74
1
 75
1
 44
0.5
 73
0
 45
1.0
 46
1.0
 77
1
  4

 78
1
 79
1
170
1
 48
1.0
171
1
  6

172
1
173
1
174
1
140
1.0
141
1.0
175
1
  7

176
1
177
1
178
1
143
1.0
179
1
  8

270
1
271
1
272
1
145
1.0
146
1.0
273
1
  9

274
1
275
1
276
1
 42
1.0
 72
1
  3

 73
1
 74
1
 75
1
 94
63
  0
MATERIAL
  5
21
102
{ACAD_REACTORS
330
E
102
}
330
E
100
AcDbMaterial
  1
Global
  2

 70
0
 40
1.0
 71
1
 41
1.0
 91
-1023410177
 42
1.0
 72
1
  3

 73
1
 74
1
 75
1
 44
0.5
 73
0
 45
1.0
 46
1.0
 77
1
  4

 78
1
 79
1
170
1
 48
1.0
171
1
  6

172
1
173
1
174
1
140
1.0
141
1.0
175
1
  7

176
1
177
1
178
1
143
1.0
179
1
  8

270
1
271
1
272
1
145
1.0
146
1.0
273
1
  9

274
1
275
1
276
1
 42
1.0
 72
1
  3

 73
1
 74
1
 75
1
 94
63
  0
MLINESTYLE
  5
22
102
{ACAD_REACTORS
330
10
102
}
330
10
100
AcDbMlineStyle
  2
Standard
 70
0
  3

 62
256
 51
90.0
 52
90.0
 71
2
 49
0.5
 62
256
  6
BYLAYER
 49
-0.5
 62
256
  6
BYLAYER
  0
MLEADERSTYLE
  5
2C
102
{ACAD_REACTORS
330
F
102
}
330
F
100
AcDbMLeaderStyle
179
2
170
2
171
1
172
0
 90
2
 40
0.0
 41
0.0
173
1
 91
-1056964608
 92
-2
290
1
 42
2.0
291
1
 43
8.0
  3
Standard
 44
4.0
300

342
29
174
1
175
1
176
0
178
1
 93
-1056964608
 45
4.0
292
0
297
0
 46
4.0
 94
-1056964608
 47
1.0
 49
0.0
140
1.0
294
1
141
0.0
177
0
142
1.0
295
0
296
0
143
3.75
271
0
272
9
272
9
  0
ENDSEC
  0
EOF
