<?xml version="1.0" encoding="UTF-8" standalone="no"?>
<svg
   xmlns:dc="http://purl.org/dc/elements/1.1/"
   xmlns:cc="http://creativecommons.org/ns#"
   xmlns:rdf="http://www.w3.org/1999/02/22-rdf-syntax-ns#"
   xmlns:svg="http://www.w3.org/2000/svg"
   xmlns="http://www.w3.org/2000/svg"
   xmlns:sodipodi="http://sodipodi.sourceforge.net/DTD/sodipodi-0.dtd"
   xmlns:inkscape="http://www.inkscape.org/namespaces/inkscape"
   width="17.856501mm"
   height="3.4215367mm"
   viewBox="0 0 17.856499 3.4215367"
   version="1.1"
   id="svg8"
   inkscape:version="1.0.1 (3bc2e813f5, 2020-09-07)"
   sodipodi:docname="logo.svg">
  <defs
     id="defs2" />
  <sodipodi:namedview
     id="base"
     pagecolor="#ffffff"
     bordercolor="#666666"
     borderopacity="1.0"
     inkscape:pageopacity="0.0"
     inkscape:pageshadow="2"
     inkscape:zoom="15.063226"
     inkscape:cx="36.848707"
     inkscape:cy="13.033136"
     inkscape:document-units="mm"
     inkscape:current-layer="layer1"
     inkscape:document-rotation="0"
     showgrid="false"
     inkscape:window-width="1918"
     inkscape:window-height="1058"
     inkscape:window-x="1366"
     inkscape:window-y="20"
     inkscape:window-maximized="1"
     fit-margin-top="0"
     fit-margin-left="0"
     fit-margin-right="0"
     fit-margin-bottom="0"
     inkscape:snap-global="false" />
  <metadata
     id="metadata5">
    <rdf:RDF>
      <cc:Work
         rdf:about="">
        <dc:format>image/svg+xml</dc:format>
        <dc:type
           rdf:resource="http://purl.org/dc/dcmitype/StillImage" />
        <dc:title></dc:title>
      </cc:Work>
    </rdf:RDF>
  </metadata>
  <g
     inkscape:label="Layer 1"
     inkscape:groupmode="layer"
     id="layer1"
     transform="translate(2.6702399,-1.0903771)">
    <path
       style="font-style:normal;font-variant:normal;font-weight:normal;font-stretch:normal;font-size:3.175px;line-height:1.25;font-family:'SEGA LOGO FONT';-inkscape-font-specification:'SEGA LOGO FONT';letter-spacing:0px;word-spacing:0px;stroke-width:0.264583"
       d="m 1.9559467,1.5796863 -0.2347543,0.059747 -0.1725938,0.1352626 -0.1017489,0.197489 -0.025794,0.2402945 0.062911,0.2345494 0.1316838,0.1664623 0.1755157,0.1063537 0.1842902,0.045334 0.1898062,0.03225 0.1920631,0.067097 0.1516051,0.1301739 0.0716,0.22126 -0.024272,0.214743 L 2.4613474,3.5863876 2.3120488,3.6883299 2.1301303,3.7287419 1.0560606,3.7983049 1.0287691,3.3769178 2.0648235,3.3098168 2.1018175,3.2915076 2.1151919,3.2524616 2.073273,3.1947301 1.996206,3.1838082 1.8420726,3.1619742 1.6746505,3.131461 1.5446328,3.0889753 1.3558281,2.9739373 1.1857135,2.8036007 1.0619835,2.5634454 0.99966403,2.2397714 1.0498493,1.8356329 1.2411989,1.4987115 1.5409131,1.2629479 1.9286602,1.1582989 2.977388,1.0903771 3.0046798,1.5117693 Z"
       id="path6982" />
    <path
       style="font-style:normal;font-variant:normal;font-weight:normal;font-stretch:normal;font-size:3.175px;line-height:1.25;font-family:'SEGA LOGO FONT';-inkscape-font-specification:'SEGA LOGO FONT';letter-spacing:0px;word-spacing:0px;stroke-width:0.264583"
       d="m 2.0066778,2.1172815 -0.040168,0.018505 -0.010211,0.038841 0.011943,0.037406 0.029751,0.017163 0.074109,0.01429 0.150965,0.022039 0.1676277,0.033687 0.1327756,0.035944 0.1953467,0.1177959 0.1766565,0.1730945 0.1332351,0.2395398 0.065082,0.3171317 L 3.0406469,3.5902302 2.8522604,3.9237781 2.5493779,4.1597468 2.1647991,4.2641907 1.0907244,4.3337541 1.0634326,3.9123619 2.1375073,3.8427986 2.3754299,3.7828462 2.5575288,3.646968 2.6658197,3.4522369 2.6945814,3.2085686 2.6169454,2.9431564 2.4573619,2.788046 2.2581406,2.7086758 2.067924,2.6700889 1.8777075,2.6315021 1.7133382,2.5498746 1.5900431,2.4146856 1.5351109,2.2050727 l 0.021304,-0.2113688 0.085201,-0.1582374 0.139999,-0.098153 0.181713,-0.043585 1.0487278,-0.067922 0.027292,0.4213921 z"
       id="path63" />
    <path
       style="font-style:normal;font-variant:normal;font-weight:normal;font-stretch:normal;font-size:3.175px;line-height:1.25;font-family:'SEGA LOGO FONT';-inkscape-font-specification:'SEGA LOGO FONT';letter-spacing:0px;word-spacing:0px;stroke-width:0.264583"
       d="m 4.1418625,3.5241426 -0.031129,-0.00839 -0.017498,-0.018283 -0.00475,-0.026716 6.351e-4,-0.034208 0.0919,-1.0325565 0.0919,-1.0325554 -0.2039807,-0.018155 -0.2039817,-0.018155 -0.096685,1.0863179 -0.096685,1.0863189 -0.00509,0.1023455 0.00433,0.085651 0.015444,0.068318 0.027627,0.056642 0.044571,0.0454 0.059929,0.034027 0.080958,0.021552 0.1007714,0.013788 0.2055625,0.018295 0.2055624,0.018295 0.1008346,0.00416 0.081121,-0.00713 0.06658,-0.022757 0.050305,-0.036966 0.039568,-0.050672 0.028053,-0.064437 0.019392,-0.08354 0.013062,-0.1016362 0.096685,-1.0863189 0.096685,-1.086318 -0.2039806,-0.018155 -0.2039817,-0.018155 -0.0919,1.0325555 -0.0919,1.0325564 -0.00621,0.033712 -0.011784,0.025245 -0.019665,0.014976 -0.029751,0.00297 -0.1012169,-0.00901 z"
       id="path6986" />
    <path
       style="font-style:normal;font-variant:normal;font-weight:normal;font-stretch:normal;font-size:3.175px;line-height:1.25;font-family:'SEGA LOGO FONT';-inkscape-font-specification:'SEGA LOGO FONT';letter-spacing:0px;word-spacing:0px;stroke-width:0.264583"
       d="m 3.9488192,4.0456574 -0.1099871,-0.01772 -0.089607,-0.031879 -0.071453,-0.047803 -0.056095,-0.059176 -0.038435,-0.069561 -0.0248,-0.079502 -0.009,-0.086859 0.00259,-0.092214 0.099499,-1.1179439 0.099499,-1.1179429 -0.1992375,-0.017733 -0.1992374,-0.017732 -0.095559,1.0736689 -0.095559,1.0736679 0.014198,0.4403485 0.1326688,0.3090471 0.2593583,0.1928208 0.3879443,0.091111 0.2024,0.018014 0.2023999,0.018014 0.215455,0.00563 0.1846419,-0.024207 0.1587131,-0.055207 0.1313426,-0.087923 0.105113,-0.1245218 0.07947,-0.1586796 0.055823,-0.1974416 0.033619,-0.2344798 0.095563,-1.0737127 0.095559,-1.0736679 -0.1992374,-0.017733 -0.1992375,-0.017733 -0.099499,1.1179429 -0.099499,1.117944 -0.014537,0.09114 -0.026575,0.083704 -0.036867,0.074013 -0.051699,0.061539 -0.063293,0.04855 -0.077976,0.034503 -0.093828,0.015553 -0.1113878,-0.00198 -0.2466766,-0.021958 z"
       id="path65" />
    <path
       style="font-style:normal;font-variant:normal;font-weight:normal;font-stretch:normal;font-size:3.175px;line-height:1.25;font-family:'SEGA LOGO FONT';-inkscape-font-specification:'SEGA LOGO FONT';letter-spacing:0px;word-spacing:0px;stroke-width:0.264583"
       d="M 6.922426,2.8461649 7.1041971,2.8076168 7.2700811,2.694413 7.3934116,2.520189 7.4546597,2.2896388 7.4342154,2.0456902 7.3334939,1.8458257 7.16063,1.7066786 6.927189,1.6419901 5.6903288,1.5356282 5.7270522,1.1085792 6.9639124,1.2149412 7.3493645,1.3277505 7.6500906,1.5734945 7.8340148,1.9175427 7.8785457,2.3260852 7.7462725,2.7895316 7.4691673,3.0843741 8.0794191,4.4370326 7.6492068,4.4000372 Z"
       id="path6990" />
    <path
       style="font-style:normal;font-variant:normal;font-weight:normal;font-stretch:normal;font-size:3.175px;line-height:1.25;font-family:'SEGA LOGO FONT';-inkscape-font-specification:'SEGA LOGO FONT';letter-spacing:0px;word-spacing:0px;stroke-width:0.264583"
       d="M 5.6805354,1.6495129 6.9173956,1.7558748 7.2360445,1.9043718 7.3376212,2.2795793 7.2859541,2.4727128 7.1745667,2.6192833 7.0200769,2.7111599 6.8333398,2.7333423 6.72895,2.7243655 7.494213,4.3867187 7.0418575,4.3478191 6.5088238,3.2089375 6.4155191,4.2939581 5.9947968,4.2577787 6.1686211,2.2364138 6.8550626,2.2954433 6.8946547,2.2797277 6.9140122,2.23997 6.9014549,2.2006495 6.8651272,2.1784052 6.0648059,2.1095828 5.8809167,4.2479907 5.4601944,4.2118114 Z"
       id="path67" />
    <path
       style="font-style:normal;font-variant:normal;font-weight:normal;font-stretch:normal;font-size:3.175px;line-height:1.25;font-family:'SEGA LOGO FONT';-inkscape-font-specification:'SEGA LOGO FONT';letter-spacing:0px;word-spacing:0px;stroke-width:0.264583"
       d="m 9.1209371,3.5300526 0.3453282,-0.052192 0.028547,-0.023581 0.00639,-0.042705 -0.0192,-0.042053 L 9.4477616,3.355431 9.1275482,3.4038273 9.0644425,2.9862891 9.8900908,2.8615027 10.034805,3.8190036 9.174624,3.9490092 8.9764812,3.9340012 8.8244082,3.8413871 8.719536,3.6998953 8.6687997,3.5341664 8.5089023,2.4762064 8.50887,2.3060252 8.5667694,2.1367216 8.6846803,2.0033027 8.8695378,1.930409 10.191203,1.7306559 l 0.06311,0.4175331 -1.3122472,0.1983298 -0.037484,0.028148 -0.00982,0.06249 0.1542038,1.0202878 0.02785,0.056796 0.044127,0.015803 z"
       id="path6994" />
    <path
       style="font-style:normal;font-variant:normal;font-weight:normal;font-stretch:normal;font-size:3.175px;line-height:1.25;font-family:'SEGA LOGO FONT';-inkscape-font-specification:'SEGA LOGO FONT';letter-spacing:0px;word-spacing:0px;stroke-width:0.264583"
       d="M 10.576475,4.2798057 9.1637689,4.4933186 8.8232253,4.4709382 8.5134571,4.3122481 8.2764075,4.0398136 8.1477353,3.677145 7.968859,2.4936111 7.9850811,2.1122545 8.1310319,1.7819343 8.3800675,1.538788 8.6983116,1.413624 10.111018,1.2001111 10.174128,1.6176443 8.811651,1.8235656 8.6052933,1.9029246 8.463691,2.0495573 8.392472,2.2369293 8.386402,2.4305101 8.5652784,3.6140439 8.6287594,3.8003242 8.7516958,3.955141 8.9303069,4.053377 9.1508989,4.068198 10.161764,3.9154185 9.9843111,2.7413027 9.0487857,2.8826956 8.9861552,2.4683018 10.273287,2.2737679 Z"
       id="path69" />
    <path
       style="font-style:normal;font-variant:normal;font-weight:normal;font-stretch:normal;font-size:3.175px;line-height:1.25;font-family:'SEGA LOGO FONT';-inkscape-font-specification:'SEGA LOGO FONT';letter-spacing:0px;word-spacing:0px;stroke-width:0.264583"
       d="m 11.096509,2.8287428 1.307674,-0.033413 0.01079,0.4221372 -0.92045,0.023519 0.0011,0.041257 0.02059,0.059814 0.04182,0.021159 1.101366,-0.028142 0.01079,0.4221372 -1.110888,0.028385 -0.194747,-0.039488 -0.1394,-0.1107755 -0.0865,-0.1534156 -0.02977,-0.1707453 z"
       id="path7000" />
    <path
       style="font-style:normal;font-variant:normal;font-weight:normal;font-stretch:normal;font-size:3.175px;line-height:1.25;font-family:'SEGA LOGO FONT';-inkscape-font-specification:'SEGA LOGO FONT';letter-spacing:0px;word-spacing:0px;stroke-width:0.264583"
       d="m 11.093809,2.7240019 -0.01233,-0.4824425 0.02109,-0.1688689 0.07847,-0.1608068 0.133561,-0.11775 0.192477,-0.049382 1.110887,-0.028385 0.01079,0.4221372 -1.101365,0.028142 -0.04069,0.023277 -0.0175,0.060787 0.0011,0.044435 0.920449,-0.023519 0.0107,0.4189633 z"
       id="path6998" />
    <path
       style="font-style:normal;font-variant:normal;font-weight:normal;font-stretch:normal;font-size:3.175px;line-height:1.25;font-family:'SEGA LOGO FONT';-inkscape-font-specification:'SEGA LOGO FONT';letter-spacing:0px;word-spacing:0px;stroke-width:0.264583"
       d="m 10.54346,2.191786 0.06344,-0.3763932 0.185827,-0.3096476 0.277292,-0.2103516 0.33132,-0.084691 1.202932,-0.030737 0.01079,0.4221373 -1.152149,0.029439 -0.214613,0.053129 -0.15871,0.1279206 -0.09393,0.177082 -0.03005,0.1913301 0.03058,1.1965844 0.03987,0.1927196 0.102767,0.1688801 0.165035,0.1196485 0.217046,0.04209 1.152149,-0.029439 0.01079,0.4221372 -1.202932,0.030737 -0.335152,-0.06448 -0.287673,-0.1959158 -0.201397,-0.2997535 -0.08266,-0.3758363 z"
       id="path71" />
    <path
       style="font-style:normal;font-variant:normal;font-weight:normal;font-stretch:normal;font-size:3.175px;line-height:1.25;font-family:'SEGA LOGO FONT';-inkscape-font-specification:'SEGA LOGO FONT';letter-spacing:0px;word-spacing:0px;stroke-width:0.264583"
       d="m 14.095128,1.735294 -0.241579,0.01786 -0.193551,0.1030651 -0.134654,0.1767005 -0.06733,0.2321051 0.02101,0.2419291 0.100611,0.1868895 0.154261,0.1353531 0.17355,0.076801 0.181265,0.064881 0.177405,0.099587 0.12656,0.1546347 0.03189,0.2303602 -0.06138,0.207211 -0.120625,0.1367311 -0.164799,0.074322 -0.186179,0.00804 L 12.821856,3.7628095 12.868526,3.3431264 13.90039,3.457871 13.94001,3.446299 13.95999,3.410186 13.92879,3.346025 13.85481,3.321821 13.706853,3.273422 13.547326,3.214158 13.426718,3.149633 13.260888,3.0034097 13.123112,2.8059983 l -0.07992,-0.2580635 -0.0049,-0.3295839 0.119947,-0.3891776 0.247214,-0.2983557 0.33626,-0.1798382 0.40006,-0.035372 1.044487,0.1161483 -0.04667,0.4196881 z"
       id="path7004" />
    <path
       style="font-style:normal;font-variant:normal;font-weight:normal;font-stretch:normal;font-size:3.175px;line-height:1.25;font-family:'SEGA LOGO FONT';-inkscape-font-specification:'SEGA LOGO FONT';letter-spacing:0px;word-spacing:0px;stroke-width:0.264583"
       d="m 14.051258,2.2734925 -0.04278,0.011211 -0.01683,0.036463 0.0052,0.038917 0.0263,0.022092 0.07048,0.027005 0.144802,0.048048 0.159176,0.062425 0.124465,0.058565 0.17179,0.1500807 0.143737,0.2012687 0.08939,0.2591162 0.0087,0.3236232 -0.123448,0.3919828 -0.243707,0.295551 -0.339416,0.1794873 -0.396905,0.035723 -1.069731,-0.1189555 0.04667,-0.4196881 1.069731,0.1189555 0.244734,-0.017509 0.203018,-0.1020124 0.140614,-0.1728431 0.07085,-0.2349092 -0.03012,-0.2748883 -0.130064,-0.1805809 -0.182312,-0.1129209 -0.180563,-0.071192 -0.180563,-0.071192 -0.147601,-0.109061 -0.09781,-0.1546322 -0.01751,-0.2159829 0.05787,-0.204407 0.111509,-0.1409393 0.154981,-0.072214 0.186531,-0.011203 1.044487,0.1161483 -0.04667,0.4196881 z"
       id="path73" />
    <path
       d="m -2.1471935,3.3781181 0.054615,0.4571864 0.054615,0.4571865 -0.1423897,0.01701 -0.1423897,0.01701 -0.1421459,-1.1899163 -0.1421458,-1.1899162 0.1423898,-0.01701 0.1423897,-0.01701 0.015631,0.1308446 0.01563,0.1308446 0.084829,-0.145968 0.1127002,-0.1087034 0.1433286,-0.0745 0.1740028,-0.039912 0.2918421,0.02837 0.2474721,0.1601372 0.1822565,0.2709745 0.0931162,0.3612502 -0.005401,0.3730189 -0.11329834,0.3062811 -0.2027872,0.2139246 -0.276947,0.096317 -0.1784622,0.00258 -0.1567064,-0.037487 -0.1352726,-0.080252 z M -1.2554618,2.6611186 -1.3210718,2.3863582 -1.443243,2.1870525 -1.611252,2.0712882 -1.8170848,2.050599 l -0.1955522,0.068638 -0.1371669,0.1522202 -0.070632,0.2223378 0.00134,0.2824377 0.065272,0.2751912 0.1211554,0.2005982 0.1690255,0.1144718 0.2061718,0.020259 0.1952132,-0.068208 0.1361504,-0.1509278 0.071648,-0.2236302 z"
       style="font-style:normal;font-variant:normal;font-weight:normal;font-stretch:normal;font-size:3.175px;line-height:1.25;font-family:sans-serif;-inkscape-font-specification:sans-serif;letter-spacing:0px;word-spacing:0px;stroke-width:0.264583"
       id="path438"
       sodipodi:nodetypes="cccccccccccccccccccccccccccccccccccccccccccc" />
    <path
       d="m 0.34730934,3.5048058 -0.0881423,0.2685367 -0.0978438,0.1611843 -0.12474073,0.086332 -0.16883303,0.043979 -0.1131421,0.013516 -0.11314209,0.013516 -0.0141594,-0.11853 -0.0141594,-0.1185298 0.0831248,-0.00993 0.0831248,-0.00993 0.10225097,-0.026267 0.07277221,-0.050848 L 0.01141027,3.6565661 0.06631763,3.479043 0.08399345,3.4113556 0.10166926,3.3436681 -0.34831571,2.5371379 -0.79830067,1.7306078 -0.64821421,1.7126786 -0.49812774,1.6947495 -0.14819844,2.3368046 0.20173068,2.9788587 0.39057347,2.2724437 0.57941626,1.5660286 0.72950272,1.5480995 0.87958918,1.5301704 0.61344925,2.517488 Z"
       style="font-style:normal;font-variant:normal;font-weight:normal;font-stretch:normal;font-size:3.175px;line-height:1.25;font-family:sans-serif;-inkscape-font-specification:sans-serif;letter-spacing:0px;word-spacing:0px;stroke-width:0.264583"
       id="path440"
       sodipodi:nodetypes="ccccccccccccccccccccccccccccc" />
  </g>
</svg>
